<svg width="143" height="35" viewBox="0 0 143 35" fill="none" xmlns="http://www.w3.org/2000/svg">
<path fill-rule="evenodd" clip-rule="evenodd" d="M114.837 21.8559C113.069 20.7391 113.547 18.2865 114.995 17.1577C114.451 20.8613 119.035 19.2869 120.858 18.6392C120.926 18.6153 121.007 18.5889 121.097 18.5596C121.738 18.3509 122.837 17.9929 122.731 17.3057C122.426 15.3202 120.066 15.6374 117.927 15.9248C116.761 16.0815 115.66 16.2293 114.995 15.9905C108.772 13.7571 111.816 5.77854 115.029 2.38538C117.988 -0.740558 123.403 0.0798435 127.149 0.704771C128.437 0.919687 130.545 1.59671 131.608 2.16787C133.581 3.22885 134.234 4.5217 134.366 5.94895C134.45 6.86658 133.707 7.93898 133.154 8.73741C133.082 8.84174 133.013 8.94139 132.949 9.03541C131.927 10.5476 130.665 11.7961 129.401 13.0468C128.538 13.9005 127.674 14.7553 126.885 15.6957C126.966 15.6318 127.047 15.568 127.128 15.5042C129.967 13.2706 132.743 11.0855 134.808 8.06074C136.424 5.69358 137.26 4.11023 134.865 2.2127C135.444 1.92404 136.006 1.6677 136.657 1.59671C141.144 1.10824 138.837 6.79756 137.698 8.71052C137.622 8.83859 137.526 8.97646 137.425 9.12139C137.066 9.63989 136.644 10.2487 136.82 10.8223C137.127 11.8231 138.396 12.575 139.618 13.2993C141.023 14.1312 142.366 14.9267 142.119 16.0211C141.834 17.2862 140.599 18.3499 139.602 19.2084C139.485 19.3091 139.371 19.407 139.263 19.5021C137.589 20.9694 135.823 22.1503 134.034 23.3473C133.174 23.9225 132.309 24.5014 131.445 25.1175C132.378 24.7979 133.282 24.3936 134.183 23.9902C135.108 23.5761 136.032 23.1628 136.983 22.8433C136.957 24.6538 136.089 25.6637 135.13 26.7805C134.715 27.2644 134.282 27.7685 133.892 28.3664C133.506 28.9595 133.213 29.6679 132.919 30.3766C132.139 32.2603 131.358 34.1451 128.839 33.8659C124.708 33.4078 124.775 28.1127 124.814 24.9822C124.817 24.7428 124.82 24.5162 124.821 24.3053C124.822 24.0036 124.645 23.6425 124.467 23.2807C124.234 22.8043 123.999 22.3267 124.171 21.9822C124.463 21.3938 125.556 20.8667 126.5 20.4107C126.979 20.1797 127.419 19.967 127.699 19.7739C129.793 18.3279 131.348 16.5334 132.911 14.5586C132.326 14.9801 131.743 15.4094 131.16 15.8392C127.368 18.6349 123.549 21.4499 118.741 22.2759C117.551 22.4804 115.892 22.5223 114.837 21.8559ZM112.457 10.7145C112.594 6.46439 115.591 -1.24622 126.478 1.9126C122.409 1.25452 113.908 2.09358 112.457 10.7145Z" fill="url(#paint0_linear_2_179)"/>
<path d="M5.81454 20.8558C6.52481 20.8558 7.10867 20.9582 7.56613 21.1628C8.02358 21.3554 8.52318 21.6444 9.06491 22.0296C9.2214 22.15 9.34179 22.2102 9.42606 22.2102C9.65479 22.2102 9.80526 21.843 9.87749 21.1086H10.2928C10.2447 21.8911 10.2206 23.2756 10.2206 25.2619H9.80526C9.69692 24.6239 9.58255 24.1002 9.46217 23.6909C9.34179 23.2695 9.15519 22.9024 8.90239 22.5894C8.55327 22.156 8.09581 21.8129 7.53001 21.5601C6.97624 21.3073 6.39238 21.1809 5.77843 21.1809C4.98389 21.1809 4.28567 21.4397 3.68375 21.9573C3.08183 22.475 2.61835 23.2154 2.29331 24.1784C1.96828 25.1295 1.80576 26.243 1.80576 27.5191C1.80576 29.686 2.14885 31.2751 2.83504 32.2863C3.53327 33.2855 4.62274 33.7851 6.10346 33.7851C6.82576 33.7851 7.45176 33.5985 7.98145 33.2253C8.19814 33.0808 8.33658 32.9424 8.39677 32.81C8.469 32.6655 8.50512 32.4729 8.50512 32.2321V30.4986C8.50512 29.993 8.45697 29.6258 8.36066 29.3971C8.26435 29.1683 8.09581 29.0118 7.85505 28.9276C7.61428 28.8433 7.22303 28.7891 6.6813 28.7651V28.4039C7.3073 28.44 8.15601 28.4581 9.22742 28.4581C10.046 28.4581 10.672 28.44 11.1054 28.4039V28.7651C10.8285 28.7891 10.6239 28.8373 10.4915 28.9095C10.3711 28.9817 10.2868 29.1202 10.2386 29.3248C10.2025 29.5295 10.1845 29.8605 10.1845 30.318V33.8934H9.82332C9.81128 33.6526 9.76313 33.4239 9.67886 33.2072C9.59459 32.9785 9.48023 32.8641 9.33577 32.8641C9.26354 32.8641 9.19131 32.8822 9.11908 32.9183C9.04685 32.9544 8.92044 33.0387 8.73987 33.1711C8.31852 33.4961 7.87912 33.7369 7.42167 33.8934C6.97624 34.0619 6.47665 34.1462 5.92289 34.1462C4.68293 34.1462 3.61753 33.8934 2.72669 33.3878C1.84789 32.8701 1.17374 32.1298 0.704246 31.1667C0.234748 30.2036 0 29.054 0 27.7177C0 26.3453 0.246787 25.1415 0.740361 24.1062C1.24597 23.0589 1.93818 22.2583 2.81698 21.7045C3.69578 21.1387 4.69497 20.8558 5.81454 20.8558Z" fill="#5C5C5C"/>
<path d="M18.421 20.8558C19.5646 20.8558 20.5638 21.1147 21.4185 21.6323C22.2853 22.15 22.9534 22.9024 23.4229 23.8895C23.9045 24.8646 24.1452 26.0323 24.1452 27.3927C24.1452 28.7169 23.8985 29.8906 23.4049 30.9139C22.9233 31.9372 22.2432 32.7317 21.3644 33.2975C20.4976 33.8633 19.5105 34.1462 18.4029 34.1462C17.2593 34.1462 16.2541 33.8874 15.3873 33.3697C14.5326 32.8521 13.8645 32.1057 13.3829 31.1306C12.9134 30.1434 12.6787 28.9697 12.6787 27.6094C12.6787 26.2851 12.9194 25.1114 13.401 24.0881C13.8946 23.0649 14.5747 22.2703 15.4415 21.7045C16.3203 21.1387 17.3135 20.8558 18.421 20.8558ZM18.3488 21.1809C17.5783 21.1809 16.8981 21.4517 16.3082 21.9935C15.7304 22.5232 15.279 23.2695 14.9539 24.2326C14.6409 25.1957 14.4844 26.2972 14.4844 27.5371C14.4844 28.7891 14.659 29.8906 15.0081 30.8417C15.3693 31.7927 15.8508 32.5271 16.4527 33.0447C17.0546 33.5624 17.7288 33.8212 18.4752 33.8212C19.2456 33.8212 19.9198 33.5563 20.4976 33.0266C21.0875 32.4849 21.5389 31.7325 21.8519 30.7694C22.177 29.8064 22.3395 28.7049 22.3395 27.4649C22.3395 26.2129 22.1589 25.1114 21.7978 24.1604C21.4486 23.2093 20.9731 22.475 20.3712 21.9573C19.7693 21.4397 19.0951 21.1809 18.3488 21.1809Z" fill="#5C5C5C"/>
<path d="M31.8957 20.8558C32.606 20.8558 33.1899 20.9582 33.6473 21.1628C34.1048 21.3554 34.6044 21.6444 35.1461 22.0296C35.3026 22.15 35.423 22.2102 35.5073 22.2102C35.736 22.2102 35.8865 21.843 35.9587 21.1086H36.374C36.3259 21.8911 36.3018 23.2756 36.3018 25.2619H35.8865C35.7781 24.6239 35.6638 24.1002 35.5434 23.6909C35.423 23.2695 35.2364 22.9024 34.9836 22.5894C34.6345 22.156 34.177 21.8129 33.6112 21.5601C33.0574 21.3073 32.4736 21.1809 31.8596 21.1809C31.0651 21.1809 30.3669 21.4397 29.765 21.9573C29.163 22.475 28.6996 23.2154 28.3745 24.1784C28.0495 25.1295 27.887 26.243 27.887 27.5191C27.887 29.686 28.2301 31.2751 28.9162 32.2863C29.6145 33.2855 30.7039 33.7851 32.1847 33.7851C32.907 33.7851 33.533 33.5985 34.0627 33.2253C34.2794 33.0808 34.4178 32.9424 34.478 32.81C34.5502 32.6655 34.5863 32.4729 34.5863 32.2321V30.4986C34.5863 29.993 34.5382 29.6258 34.4419 29.3971C34.3456 29.1683 34.177 29.0118 33.9363 28.9276C33.6955 28.8433 33.3042 28.7891 32.7625 28.7651V28.4039C33.3885 28.44 34.2372 28.4581 35.3086 28.4581C36.1272 28.4581 36.7532 28.44 37.1866 28.4039V28.7651C36.9097 28.7891 36.7051 28.8373 36.5727 28.9095C36.4523 28.9817 36.368 29.1202 36.3199 29.3248C36.2837 29.5295 36.2657 29.8605 36.2657 30.318V33.8934H35.9045C35.8925 33.6526 35.8443 33.4239 35.7601 33.2072C35.6758 32.9785 35.5614 32.8641 35.417 32.8641C35.3447 32.8641 35.2725 32.8822 35.2003 32.9183C35.1281 32.9544 35.0017 33.0387 34.8211 33.1711C34.3997 33.4961 33.9603 33.7369 33.5029 33.8934C33.0575 34.0619 32.5579 34.1462 32.0041 34.1462C30.7641 34.1462 29.6987 33.8934 28.8079 33.3878C27.9291 32.8701 27.255 32.1298 26.7855 31.1667C26.316 30.2036 26.0812 29.054 26.0812 27.7177C26.0812 26.3453 26.328 25.1415 26.8216 24.1062C27.3272 23.0589 28.0194 22.2583 28.8982 21.7045C29.777 21.1387 30.7762 20.8558 31.8957 20.8558Z" fill="#5C5C5C"/>
<path d="M47.8067 31.582C47.8067 32.2682 47.8489 33.0387 47.9331 33.8934C47.1145 33.8573 45.7361 33.8392 43.7979 33.8392C41.4866 33.8392 39.741 33.8573 38.5612 33.8934V33.5323C38.9946 33.5082 39.3076 33.46 39.5002 33.3878C39.7049 33.3156 39.8433 33.1771 39.9156 32.9725C39.9878 32.7678 40.0239 32.4368 40.0239 31.9793V23.0227C40.0239 22.5653 39.9878 22.2342 39.9156 22.0296C39.8433 21.8249 39.7049 21.6865 39.5002 21.6143C39.3076 21.542 38.9946 21.4939 38.5612 21.4698V21.1086C39.741 21.1448 41.4866 21.1628 43.7979 21.1628C45.5676 21.1628 46.8256 21.1448 47.572 21.1086C47.4877 21.9032 47.4456 22.6134 47.4456 23.2394C47.4456 23.7089 47.4636 24.0821 47.4998 24.359H47.0844C47.0002 23.5765 46.8918 22.9987 46.7594 22.6255C46.627 22.2403 46.4043 21.9634 46.0913 21.7948C45.7783 21.6143 45.3027 21.524 44.6647 21.524H43.1659C42.7325 21.524 42.4135 21.5601 42.2089 21.6323C42.0163 21.6925 41.8838 21.8249 41.8116 22.0296C41.7394 22.2342 41.7033 22.5653 41.7033 23.0227V27.2843H42.8951C43.3164 27.2843 43.6414 27.188 43.8702 26.9954C44.0989 26.7908 44.2494 26.556 44.3216 26.2912C44.4059 26.0143 44.4721 25.6712 44.5203 25.2619L44.5744 24.9007H44.9897C44.9536 25.4063 44.9356 25.9721 44.9356 26.5981V27.4649C44.9356 28.0789 44.9717 28.9336 45.0439 30.0291H44.6286C44.6166 29.9448 44.5804 29.6559 44.5203 29.1623C44.4601 28.6567 44.2915 28.2775 44.0146 28.0247C43.7498 27.7719 43.3766 27.6455 42.8951 27.6455H41.7033V31.9793C41.7033 32.4368 41.7394 32.7678 41.8116 32.9725C41.8838 33.1771 42.0163 33.3156 42.2089 33.3878C42.4135 33.448 42.7325 33.4781 43.1659 33.4781H44.4841C45.2305 33.4781 45.7963 33.3818 46.1815 33.1892C46.5788 32.9845 46.8677 32.6655 47.0483 32.2321C47.2289 31.7867 47.3613 31.1366 47.4456 30.2819H47.8609C47.8248 30.6069 47.8067 31.0403 47.8067 31.582Z" fill="#5C5C5C"/>
<path d="M63.5429 32.3766C63.8318 33.123 64.2472 33.5082 64.7889 33.5323V33.8934C64.3074 33.8573 63.6633 33.8392 62.8567 33.8392C61.8214 33.8392 61.051 33.8573 60.5454 33.8934V33.5323C61.0028 33.5082 61.3278 33.454 61.5205 33.3697C61.7251 33.2734 61.8274 33.1049 61.8274 32.8641C61.8274 32.6595 61.7552 32.3766 61.6107 32.0154L60.5092 29.054H56.1393L55.3989 30.9681C55.1582 31.6182 55.0378 32.1117 55.0378 32.4488C55.0378 32.822 55.1642 33.0929 55.417 33.2614C55.6818 33.4299 56.0791 33.5202 56.6088 33.5323V33.8934C55.9226 33.8573 55.2304 33.8392 54.5322 33.8392C53.9904 33.8392 53.539 33.8573 53.1779 33.8934V33.5323C53.7798 33.3878 54.2553 32.8641 54.6044 31.9612L58.8479 21.0184H59.1369L63.5429 32.3766ZM60.3648 28.6928L58.3423 23.2936L56.2838 28.6928H60.3648Z" fill="url(#paint1_linear_2_179)"/>
<path d="M74.0949 21.1086C74.0106 21.9634 73.9685 22.7338 73.9685 23.42C73.9685 24.0219 73.9865 24.5155 74.0227 24.9007H73.6073C73.511 23.9738 73.3906 23.2876 73.2462 22.8422C73.1017 22.3847 72.8489 22.0537 72.4878 21.849C72.1266 21.6323 71.5728 21.524 70.8265 21.524H69.6888C69.2555 21.524 68.9364 21.5601 68.7318 21.6323C68.5392 21.6925 68.4067 21.8249 68.3345 22.0296C68.2623 22.2342 68.2262 22.5653 68.2262 23.0227V27.4649H69.5444C69.9657 27.4649 70.2908 27.3686 70.5195 27.176C70.7482 26.9713 70.8987 26.7366 70.9709 26.4717C71.0552 26.1949 71.1214 25.8518 71.1696 25.4425L71.2237 25.0813H71.6391C71.6029 25.5869 71.5849 26.1527 71.5849 26.7787V27.6455C71.5849 28.2594 71.621 29.1142 71.6932 30.2097H71.2779C71.2659 30.1254 71.2297 29.8365 71.1696 29.3429C71.1094 28.8373 70.9408 28.4581 70.6639 28.2053C70.3991 27.9525 70.0259 27.8261 69.5444 27.8261H68.2262V31.9793C68.2262 32.4368 68.2743 32.7678 68.3706 32.9725C68.4669 33.1771 68.6355 33.3156 68.8762 33.3878C69.117 33.46 69.5083 33.5082 70.05 33.5323V33.8934C69.424 33.8573 68.5392 33.8392 67.3955 33.8392C66.3602 33.8392 65.5898 33.8573 65.0842 33.8934V33.5323C65.5175 33.5082 65.8305 33.46 66.0231 33.3878C66.2278 33.3156 66.3662 33.1771 66.4385 32.9725C66.5107 32.7678 66.5468 32.4368 66.5468 31.9793V23.0227C66.5468 22.5653 66.5107 22.2342 66.4385 22.0296C66.3662 21.8249 66.2278 21.6865 66.0231 21.6143C65.8305 21.542 65.5175 21.4939 65.0842 21.4698V21.1086C66.2639 21.1448 68.0095 21.1628 70.3208 21.1628C72.0905 21.1628 73.3485 21.1448 74.0949 21.1086Z" fill="url(#paint2_linear_2_179)"/>
<path d="M86.5246 32.9905C86.2477 33.3998 85.9708 33.6948 85.6939 33.8753C85.417 34.0559 85.0499 34.1462 84.5924 34.1462C84.0988 34.1462 83.6895 34.0018 83.3645 33.7128C83.0515 33.4239 82.8167 32.9183 82.6602 32.196L82.263 30.3902C82.1185 29.7642 81.9801 29.2827 81.8477 28.9456C81.7273 28.6086 81.5407 28.3377 81.2879 28.133C81.0351 27.9284 80.6799 27.8261 80.2225 27.8261H78.507V31.9793C78.507 32.4368 78.5431 32.7678 78.6153 32.9725C78.6876 33.1771 78.82 33.3156 79.0126 33.3878C79.2173 33.46 79.5363 33.5082 79.9697 33.5323V33.8934C79.4159 33.8573 78.6515 33.8392 77.6764 33.8392C76.6411 33.8392 75.8706 33.8573 75.365 33.8934V33.5323C75.7984 33.5082 76.1114 33.46 76.304 33.3878C76.5086 33.3156 76.6471 33.1771 76.7193 32.9725C76.7915 32.7678 76.8276 32.4368 76.8276 31.9793V23.0227C76.8276 22.5653 76.7915 22.2342 76.7193 22.0296C76.6471 21.8249 76.5086 21.6865 76.304 21.6143C76.1114 21.542 75.7984 21.4939 75.365 21.4698V21.1086C75.8706 21.1448 76.6049 21.1628 77.568 21.1628L79.5182 21.1448C79.747 21.1327 80.0058 21.1267 80.2947 21.1267C81.6912 21.1267 82.7626 21.4216 83.509 22.0115C84.2674 22.5894 84.6466 23.3418 84.6466 24.2687C84.6466 24.7382 84.5322 25.2137 84.3035 25.6953C84.0868 26.1648 83.7136 26.5921 83.1839 26.9774C82.6663 27.3505 81.9861 27.6034 81.1434 27.7358L81.3601 27.7719C82.1546 27.9043 82.7325 28.1451 83.0936 28.4942C83.4548 28.8433 83.7196 29.3971 83.8882 30.1555L84.3396 31.9974C84.46 32.5511 84.5864 32.9364 84.7188 33.153C84.8512 33.3697 85.0318 33.4781 85.2605 33.4781C85.4652 33.4781 85.6337 33.4239 85.7661 33.3156C85.9106 33.2072 86.0731 33.0327 86.2537 32.7919L86.5246 32.9905ZM79.8433 21.4698C79.4701 21.4698 79.1872 21.5119 78.9946 21.5962C78.814 21.6805 78.6876 21.8309 78.6153 22.0476C78.5431 22.2643 78.507 22.5894 78.507 23.0227V27.4649H79.7169C80.9087 27.4649 81.7273 27.2001 82.1727 26.6704C82.6181 26.1407 82.8408 25.4063 82.8408 24.4674C82.8408 23.4802 82.6061 22.7338 82.1366 22.2282C81.6671 21.7226 80.9026 21.4698 79.8433 21.4698Z" fill="url(#paint3_linear_2_179)"/>
<path d="M91.6789 21.4698C91.2455 21.4939 90.9265 21.542 90.7218 21.6143C90.5292 21.6865 90.3968 21.8249 90.3246 22.0296C90.2523 22.2342 90.2162 22.5653 90.2162 23.0227V31.9793C90.2162 32.4368 90.2523 32.7678 90.3246 32.9725C90.3968 33.1771 90.5292 33.3156 90.7218 33.3878C90.9265 33.46 91.2455 33.5082 91.6789 33.5323V33.8934C91.1251 33.8573 90.3607 33.8392 89.3856 33.8392C88.3503 33.8392 87.5798 33.8573 87.0742 33.8934V33.5323C87.5076 33.5082 87.8206 33.46 88.0132 33.3878C88.2178 33.3156 88.3563 33.1771 88.4285 32.9725C88.5007 32.7678 88.5369 32.4368 88.5369 31.9793V23.0227C88.5369 22.5653 88.5007 22.2342 88.4285 22.0296C88.3563 21.8249 88.2178 21.6865 88.0132 21.6143C87.8206 21.542 87.5076 21.4939 87.0742 21.4698V21.1086C87.5798 21.1448 88.3503 21.1628 89.3856 21.1628C90.3486 21.1628 91.1131 21.1448 91.6789 21.1086V21.4698Z" fill="url(#paint4_linear_2_179)"/>
<path d="M98.9932 20.8558C99.7155 20.8558 100.329 20.9582 100.835 21.1628C101.341 21.3675 101.834 21.6564 102.316 22.0296C102.448 22.1379 102.563 22.1921 102.659 22.1921C102.9 22.1921 103.056 21.8309 103.128 21.1086H103.544C103.496 21.8911 103.471 23.2756 103.471 25.2619H103.056C102.924 24.4794 102.803 23.9196 102.695 23.5825C102.587 23.2334 102.406 22.9024 102.153 22.5894C101.792 22.1199 101.329 21.7708 100.763 21.542C100.209 21.3013 99.6071 21.1809 98.9571 21.1809C98.1746 21.1809 97.4884 21.4397 96.8985 21.9573C96.3207 22.475 95.8692 23.2154 95.5442 24.1784C95.2191 25.1295 95.0566 26.249 95.0566 27.5371C95.0566 28.8493 95.2312 29.9749 95.5803 30.9139C95.9294 31.8529 96.4109 32.5692 97.0249 33.0628C97.6509 33.5443 98.3551 33.7851 99.1376 33.7851C99.7396 33.7851 100.323 33.6707 100.889 33.442C101.455 33.2132 101.9 32.8701 102.225 32.4127C102.466 32.0756 102.641 31.7145 102.749 31.3292C102.858 30.944 102.96 30.3541 103.056 29.5596H103.471C103.471 31.6302 103.496 33.0748 103.544 33.8934H103.128C103.092 33.5082 103.038 33.2373 102.966 33.0808C102.906 32.9123 102.815 32.828 102.695 32.828C102.599 32.828 102.472 32.8762 102.316 32.9725C101.774 33.3577 101.256 33.6526 100.763 33.8573C100.269 34.0499 99.6734 34.1462 98.9751 34.1462C97.8315 34.1462 96.8263 33.8874 95.9595 33.3697C95.1048 32.8521 94.4367 32.1057 93.9551 31.1306C93.4856 30.1434 93.2509 28.9697 93.2509 27.6094C93.2509 26.2851 93.4916 25.1114 93.9732 24.0881C94.4667 23.0649 95.1469 22.2703 96.0137 21.7045C96.8925 21.1387 97.8857 20.8558 98.9932 20.8558Z" fill="url(#paint5_linear_2_179)"/>
<path d="M114.965 32.3766C115.254 33.123 115.669 33.5082 116.211 33.5323V33.8934C115.729 33.8573 115.085 33.8392 114.279 33.8392C113.243 33.8392 112.473 33.8573 111.967 33.8934V33.5323C112.425 33.5082 112.75 33.454 112.942 33.3697C113.147 33.2734 113.249 33.1049 113.249 32.8641C113.249 32.6595 113.177 32.3766 113.033 32.0154L111.931 29.054H107.561L106.821 30.9681C106.58 31.6182 106.46 32.1117 106.46 32.4488C106.46 32.822 106.586 33.0929 106.839 33.2614C107.104 33.4299 107.501 33.5202 108.031 33.5323V33.8934C107.344 33.8573 106.652 33.8392 105.954 33.8392C105.412 33.8392 104.961 33.8573 104.6 33.8934V33.5323C105.202 33.3878 105.677 32.8641 106.026 31.9612L110.27 21.0184H110.559L114.965 32.3766ZM111.787 28.6928L109.764 23.2936L107.706 28.6928H111.787Z" fill="url(#paint6_linear_2_179)"/>
<defs>
<linearGradient id="paint0_linear_2_179" x1="141.748" y1="0.935931" x2="106.733" y2="10.3369" gradientUnits="userSpaceOnUse">
<stop stop-color="#FFC000"/>
<stop offset="1" stop-color="#FF8A00"/>
</linearGradient>
<linearGradient id="paint1_linear_2_179" x1="115.391" y1="21.1772" x2="89.3547" y2="57.5732" gradientUnits="userSpaceOnUse">
<stop stop-color="#FFC000"/>
<stop offset="1" stop-color="#FF8A00"/>
</linearGradient>
<linearGradient id="paint2_linear_2_179" x1="115.391" y1="21.1772" x2="89.3547" y2="57.5732" gradientUnits="userSpaceOnUse">
<stop stop-color="#FFC000"/>
<stop offset="1" stop-color="#FF8A00"/>
</linearGradient>
<linearGradient id="paint3_linear_2_179" x1="115.391" y1="21.1772" x2="89.3547" y2="57.5732" gradientUnits="userSpaceOnUse">
<stop stop-color="#FFC000"/>
<stop offset="1" stop-color="#FF8A00"/>
</linearGradient>
<linearGradient id="paint4_linear_2_179" x1="115.391" y1="21.1772" x2="89.3547" y2="57.5732" gradientUnits="userSpaceOnUse">
<stop stop-color="#FFC000"/>
<stop offset="1" stop-color="#FF8A00"/>
</linearGradient>
<linearGradient id="paint5_linear_2_179" x1="115.391" y1="21.1772" x2="89.3547" y2="57.5732" gradientUnits="userSpaceOnUse">
<stop stop-color="#FFC000"/>
<stop offset="1" stop-color="#FF8A00"/>
</linearGradient>
<linearGradient id="paint6_linear_2_179" x1="115.391" y1="21.1772" x2="89.3547" y2="57.5732" gradientUnits="userSpaceOnUse">
<stop stop-color="#FFC000"/>
<stop offset="1" stop-color="#FF8A00"/>
</linearGradient>
</defs>
</svg>
